<svg aria-hidden="true" style="position: absolute; width: 0; height: 0; overflow: hidden;" version="1.1" xmlns="http://www.w3.org/2000/svg" xmlns:xlink="http://www.w3.org/1999/xlink">
<defs>
<symbol id="icon-apple" viewBox="0 0 32 32">
<path d="M25.385 17.004c0.047 4.841 4.559 6.449 4.611 6.473-0.041 0.109-0.723 2.295-2.381 4.552-1.434 1.949-2.918 3.89-5.26 3.929-2.303 0.041-3.043-1.271-5.676-1.271-2.632 0-3.454 1.232-5.632 1.312-2.259 0.080-3.981-2.104-5.427-4.048-2.954-3.974-5.21-11.229-2.178-16.125 1.503-2.432 4.192-3.972 7.112-4.013 2.22-0.037 4.317 1.394 5.672 1.394 1.359 0 3.906-1.719 6.582-1.467 1.121 0.043 4.268 0.42 6.287 3.169-0.159 0.097-3.755 2.041-3.71 6.095zM15.956 7.375c-0.261-1.839 0.712-3.751 1.824-4.952 1.241-1.353 3.335-2.359 5.064-2.423 0.221 1.874-0.59 3.755-1.789 5.109-1.201 1.352-3.17 2.405-5.099 2.266z"></path>
</symbol>
<symbol id="icon-verified" viewBox="0 0 24 24">
<path d="M23.016 12l-2.438-2.813 0.328-3.656-3.609-0.844-1.875-3.188-3.422 1.453-3.422-1.453-1.875 3.188-3.609 0.797 0.328 3.703-2.438 2.813 2.438 2.813-0.328 3.656 3.609 0.844 1.875 3.188 3.422-1.453 3.422 1.453 1.875-3.188 3.609-0.844-0.328-3.656zM10.078 16.734l-3.797-3.844 1.5-1.453 2.297 2.344 5.859-5.906 1.5 1.5z"></path>
</symbol>
<symbol id="icon-ethereum" viewBox="0 0 32 32">
<path d="M15.925 23.96l-9.819-5.8 9.817 13.84 9.827-13.84-9.829 5.8zM16.075 0l-9.821 16.297 9.82 5.805 9.82-5.8z"></path>
</symbol>
</defs>
</svg>
